<svg width="21" height="21" viewBox="0 0 21 21" fill="none" xmlns="http://www.w3.org/2000/svg">
<path d="M2.625 4.375V3.9375C2.50897 3.9375 2.39769 3.98359 2.31564 4.06564C2.23359 4.14769 2.1875 4.25897 2.1875 4.375H2.625ZM18.375 4.375H18.8125C18.8125 4.25897 18.7664 4.14769 18.6844 4.06564C18.6023 3.98359 18.491 3.9375 18.375 3.9375V4.375ZM2.625 4.8125H18.375V3.9375H2.625V4.8125ZM17.9375 4.375V14.875H18.8125V4.375H17.9375ZM16.625 16.1875H4.375V17.0625H16.625V16.1875ZM3.0625 14.875V4.375H2.1875V14.875H3.0625ZM4.375 16.1875C4.0269 16.1875 3.69306 16.0492 3.44692 15.8031C3.20078 15.5569 3.0625 15.2231 3.0625 14.875H2.1875C2.1875 15.4552 2.41797 16.0116 2.8282 16.4218C3.23844 16.832 3.79484 17.0625 4.375 17.0625V16.1875ZM17.9375 14.875C17.9375 15.2231 17.7992 15.5569 17.5531 15.8031C17.3069 16.0492 16.9731 16.1875 16.625 16.1875V17.0625C17.2052 17.0625 17.7616 16.832 18.1718 16.4218C18.582 16.0116 18.8125 15.4552 18.8125 14.875H17.9375Z" fill="black"/>
<path d="M2.625 4.375L10.5 12.25L18.375 4.375" stroke="black" stroke-linecap="round" stroke-linejoin="round"/>
</svg>
