<svg width="20" height="20" viewBox="0 0 20 20" fill="none" xmlns="http://www.w3.org/2000/svg">
<g clip-path="url(#clip0_1_9)">
<path d="M18.1675 8.33333C18.5481 10.2011 18.2768 12.1429 17.399 13.8348C16.5212 15.5268 15.0899 16.8667 13.3438 17.6311C11.5976 18.3955 9.64219 18.5382 7.80358 18.0353C5.96498 17.5325 4.35433 16.4145 3.24023 14.8679C2.12613 13.3212 1.57593 11.4394 1.68139 9.53616C1.78684 7.63295 2.54157 5.82341 3.81971 4.40931C5.09785 2.99521 6.82215 2.06203 8.70505 1.76538C10.588 1.46873 12.5157 1.82655 14.1667 2.77917" stroke="white" stroke-width="1.66667" stroke-linecap="round" stroke-linejoin="round"/>
<path d="M7.5 9.16667L10 11.6667L18.3333 3.33333" stroke="white" stroke-width="1.66667" stroke-linecap="round" stroke-linejoin="round"/>
</g>
<defs>
<clipPath id="clip0_1_9">
<rect width="20" height="20" fill="white"/>
</clipPath>
</defs>
</svg>
